<?xml version="1.0" standalone="no"?>
<!DOCTYPE svg PUBLIC "-//W3C//DTD SVG 20010904//EN"
 "http://www.w3.org/TR/2001/REC-SVG-20010904/DTD/svg10.dtd">
<svg version="1.0" xmlns="http://www.w3.org/2000/svg"
 width="700.000000pt" height="700.000000pt" viewBox="0 0 700.000000 700.000000"
 preserveAspectRatio="xMidYMid meet">
<metadata>
Created by potrace 1.14, written by Peter Selinger 2001-2017
</metadata>
<g transform="translate(0.000000,700.000000) scale(0.100000,-0.100000)"
fill="#000000" stroke="none">
<path d="M4028 5679 l-818 -818 0 629 c0 347 -3 631 -7 631 -5 1 -529 2 -1165
3 -765 1 -1159 -2 -1161 -9 -2 -5 -3 -530 -3 -1165 l1 -1155 1165 0 1165 0 3
528 c1 290 4 527 5 527 2 0 372 -369 823 -820 l821 -820 -56 0 c-31 0 -271 -1
-533 0 l-478 0 0 -1168 0 -1167 1163 1 c639 1 1164 2 1167 3 3 0 5 524 5 1163
l0 1163 -624 2 c-343 1 -626 4 -628 6 -2 3 363 373 811 822 449 450 816 821
816 824 0 11 -1635 1641 -1645 1640 -6 -1 -378 -370 -827 -820z"/>
<path d="M877 3202 c-2 -4 -3 -529 -3 -1167 l1 -1160 1155 -1 c635 0 1161 1
1168 4 9 3 12 246 12 1168 l0 1164 -1165 -1 c-640 0 -1166 -3 -1168 -7z"/>
</g>
</svg>
